<svg width="25" height="25" viewBox="0 0 25 25" fill="none" xmlns="http://www.w3.org/2000/svg">
<path d="M5 10.3252C5 12.1817 5.7375 13.9622 7.05025 15.2749C8.36301 16.5877 10.1435 17.3252 12 17.3252M12 17.3252C13.8565 17.3252 15.637 16.5877 16.9497 15.2749C18.2625 13.9622 19 12.1817 19 10.3252M12 17.3252V21.3252M8 21.3252H16M9 5.3252C9 4.52955 9.31607 3.76648 9.87868 3.20388C10.4413 2.64127 11.2044 2.3252 12 2.3252C12.7956 2.3252 13.5587 2.64127 14.1213 3.20388C14.6839 3.76648 15 4.52955 15 5.3252V10.3252C15 11.1208 14.6839 11.8839 14.1213 12.4465C13.5587 13.0091 12.7956 13.3252 12 13.3252C11.2044 13.3252 10.4413 13.0091 9.87868 12.4465C9.31607 11.8839 9 11.1208 9 10.3252V5.3252Z" stroke="#fff" stroke-width="2" stroke-linecap="round" stroke-linejoin="round"/>
</svg>
