<svg width="100" height="100" viewBox="0 0 100 100" fill="none" xmlns="http://www.w3.org/2000/svg">
<path d="M7.19873 25.2887L50 0.57735L92.8013 25.2887V74.7113L50 99.4226L7.19873 74.7113V25.2887Z" stroke="#D9D9D9"/>
<path d="M69.672 20.288C75.841 24.5479 80.503 30.6514 82.9899 37.7238C85.4768 44.7962 85.6608 52.4743 83.5157 59.6577C81.3706 66.8411 77.0065 73.1611 71.0487 77.7117C65.091 82.2624 57.8456 84.8101 50.3508 84.9898C42.8561 85.1695 35.4969 82.9719 29.328 78.712C23.159 74.452 18.497 68.3485 16.0101 61.2761C13.5232 54.2038 13.3392 46.5256 15.4843 39.3422C17.6294 32.1588 21.9936 25.8389 27.9513 21.2882L29.9247 23.8718C24.5125 28.0057 20.548 33.7469 18.5994 40.2724C16.6507 46.798 16.8179 53.773 19.077 60.1977C21.3362 66.6224 25.5712 72.167 31.1753 76.0368C36.7793 79.9066 43.4646 81.903 50.2729 81.7397C57.0813 81.5765 63.6632 79.2621 69.0754 75.1282C74.4875 70.9943 78.452 65.2531 80.4007 58.7275C82.3493 52.2019 82.1821 45.2269 79.9229 38.8022C77.6638 32.3775 73.4287 26.833 67.8247 22.9632L69.672 20.288Z" fill="#D9D9D9"/>
<path d="M56.41 14.1924L71.884 16.0786L62.5135 28.5363L56.41 14.1924Z" fill="#D9D9D9"/>
</svg>
